<?xml version="1.0" encoding="UTF-8" standalone="no"?>
<!DOCTYPE svg PUBLIC "-//W3C//DTD SVG 1.1//EN" "http://www.w3.org/Graphics/SVG/1.1/DTD/svg11.dtd">
<!-- 由 Microsoft Visio, SVG Export 生成 aov.svg Page-5 -->
<svg xmlns="http://www.w3.org/2000/svg" xmlns:xlink="http://www.w3.org/1999/xlink" xmlns:ev="http://www.w3.org/2001/xml-events"
		width="8.04268in" height="2.0169in" viewBox="0 0 579.073 145.217" xml:space="preserve" color-interpolation-filters="sRGB"
		class="st15">
	<style type="text/css">
	<![CDATA[
		.st1 {fill:none;stroke:#000000;stroke-dasharray:10.5,7.5;stroke-linecap:round;stroke-linejoin:round;stroke-width:1.5}
		.st2 {fill:#2c2c2c;stroke:none;stroke-linecap:butt;stroke-width:0.146484}
		.st3 {fill:none;stroke:none;stroke-linecap:butt;stroke-width:0.146484}
		.st4 {fill:#ffffff;stroke:none;stroke-linecap:butt;stroke-width:0.146484}
		.st5 {fill:#000000;stroke:none;stroke-linecap:butt;stroke-width:0.146484}
		.st6 {marker-end:url(#mrkr4-27);stroke:#000000;stroke-linecap:round;stroke-linejoin:round;stroke-width:1}
		.st7 {fill:#000000;fill-opacity:1;stroke:#000000;stroke-opacity:1;stroke-width:0.28409090909091}
		.st8 {fill:none;stroke:none;stroke-linecap:round;stroke-linejoin:round;stroke-width:0.75}
		.st9 {fill:#000000;font-family:宋体;font-size:0.833336em;font-weight:bold}
		.st10 {fill:none;stroke:#000000;stroke-linecap:round;stroke-linejoin:round;stroke-width:1.5}
		.st11 {font-size:1em}
		.st12 {fill:#444444;stroke:none;stroke-linecap:butt;stroke-width:0.146484}
		.st13 {font-family:Microsoft Sans Serif;font-size:1em}
		.st14 {marker-start:url(#mrkr4-92);stroke:#000000;stroke-linecap:round;stroke-linejoin:round;stroke-width:1}
		.st15 {fill:none;fill-rule:evenodd;font-size:12px;overflow:visible;stroke-linecap:square;stroke-miterlimit:3}
	]]>
	</style>

	<defs id="Markers">
		<g id="lend4">
			<path d="M 2 1 L 0 0 L 2 -1 L 2 1 " style="stroke:none"/>
		</g>
		<marker id="mrkr4-27" class="st7" refX="-7.04" orient="auto" markerUnits="strokeWidth" overflow="visible">
			<use xlink:href="#lend4" transform="scale(-3.52,-3.52) "/>
		</marker>
		<marker id="mrkr4-92" class="st7" refX="6.68" orient="auto" markerUnits="strokeWidth" overflow="visible">
			<use xlink:href="#lend4" transform="scale(3.52) "/>
		</marker>
	</defs>
	<g>
		<title>页-5</title>
		<g id="shape1-1" transform="translate(97.5166,-18.75)">
			<title>矩形.159</title>
			<path d="M0 145.22 L175.75 145.22 L175.75 37.5 L0 37.5 L0 145.22 Z" class="st1"/>
		</g>
		<g id="group2-3" transform="translate(422.367,-58.7148)">
			<title>工作表.2</title>
			<g id="shape3-4" transform="translate(-2.15827E-13,-11.9343)">
				<title>工作表.3</title>
				<path d="M13.54 133.89 L11.14 137.88 C11.1 137.88 11.06 137.88 11.02 137.88 C10.79 137.88 10.57 137.91 10.36 137.98
							 L8.71 136.33 A2.22078 2.22078 -180 0 0 8.81 135.67 C8.81 134.46 7.83 133.47 6.61 133.47 C5.39 133.47
							 4.41 134.46 4.41 135.67 C4.41 136.1 4.53 136.49 4.73 136.82 L2.33 140.81 C2.29 140.81 2.24 140.81 2.2
							 140.81 C0.99 140.81 0 141.8 0 143.01 C0 144.23 0.99 145.22 2.2 145.22 C3.42 145.22 4.41 144.23 4.41
							 143.01 A2.20259 2.20259 -180 0 0 4.08 141.87 L6.48 137.87 A2.22857 2.22857 -180 0 0 7.27 137.77 L8.91
							 139.42 A2.21792 2.21792 -180 0 0 8.81 140.08 C8.81 141.29 9.8 142.28 11.02 142.28 C12.23 142.28 13.22
							 141.29 13.22 140.08 C13.22 139.65 13.1 139.26 12.89 138.93 C12.89 138.93 15.38 134.94 15.42 134.94 L13.54
							 133.89 Z" class="st2"/>
			</g>
			<g id="shape4-6" transform="translate(11.7763,-13.9163)">
				<title>工作表.4</title>
				<path d="M1.88 139.77 L4.28 135.77 A2.22805 2.22805 -180 0 0 5.06 135.68 L11.74 142.36 A2.22935 2.22935 -180 0 0
							 11.64 143.01 C11.64 144.23 12.63 145.22 13.85 145.22 C15.06 145.22 16.05 144.23 16.05 143.01 A2.1974
							 2.1974 -180 0 0 15.72 141.87 L18.12 137.87 C18.16 137.88 18.21 137.88 18.25 137.88 C19.47 137.88 20.45
							 136.89 20.45 135.67 C20.45 134.46 19.47 133.47 18.25 133.47 C17.04 133.47 16.05 134.46 16.05 135.68
							 C16.05 136.1 16.17 136.49 16.37 136.83 L13.97 140.82 C13.94 140.81 13.89 140.81 13.85 140.81 C13.62
							 140.81 13.4 140.85 13.19 140.91 L6.51 134.23 A2.22935 2.22935 -180 0 0 6.61 133.58 C6.61 132.36 5.62
							 131.37 4.41 131.37 C3.19 131.37 2.2 132.36 2.2 133.58 A2.20259 2.20259 -180 0 0 2.53 134.72 C2.53 134.72
							 0.04 138.71 0 138.71 L1.88 139.77 Z" class="st2"/>
			</g>
			<g id="shape5-8" transform="translate(4.33272,0)">
				<title>工作表.5</title>
				<path d="M30.45 135.13 L37.53 142.24 C38.19 142.86 38.19 143.91 37.56 144.54 C36.93 145.19 35.87 145.22 35.24 144.56
							 L28.12 137.45 C26.74 138.59 25.19 139.54 23.51 140.23 A17.7748 17.7748 0 0 1 16.63 141.61 C11.38 141.61
							 6.38 139.28 2.97 135.25 C1.25 133.24 3.86 131.36 5.82 133.52 C8.6 136.57 12.5 138.3 16.63 138.3 C18.63
							 138.3 20.52 137.9 22.24 137.19 A14.5195 14.5195 -180 0 0 26.98 134.03 L27.01 134.01 C28.35 132.66 29.45
							 131.04 30.2 129.24 C30.9 127.55 31.29 125.65 31.29 123.65 A14.7519 14.7519 -180 0 0 30.22 118.12 L30.2
							 118.05 A14.5587 14.5587 -180 0 0 27.09 113.36 L27.01 113.28 C25.64 111.94 24.02 110.84 22.24 110.11
							 C20.53 109.38 18.63 108.99 16.63 108.99 C10.66 108.99 5.52 112.64 3.25 117.74 C2.97 118.35 2.41 118.72
							 1.74 118.72 L1.73 118.72 C1.15 118.72 0.67 118.43 0.35 117.97 C0.04 117.49 0 116.93 0.23 116.39 C3.06
							 110.04 9.51 105.7 16.63 105.7 C19.05 105.7 21.37 106.19 23.51 107.08 C25.71 107.98 27.69 109.32 29.33
							 110.96 L29.42 111.04 C31.04 112.69 32.32 114.63 33.22 116.78 L33.26 116.87 C34.12 118.97 34.59 121.24
							 34.59 123.65 A17.7789 17.7789 0 0 1 33.22 130.49 A18.1047 18.1047 0 0 1 30.45 135.13 Z" class="st2"/>
			</g>
		</g>
		<g id="group6-10" transform="translate(18.1465,-47.0965)">
			<title>工作表.6</title>
			<g id="shape7-11" transform="translate(0.675954,-0.675954)">
				<title>工作表.7</title>
				<rect x="0" y="103.307" width="31.0939" height="41.9091" class="st3"/>
			</g>
			<g id="shape8-13" transform="translate(6.75954,-8.11144)">
				<title>工作表.8</title>
				<path d="M9.46 135.75 C4.24 135.75 0 139.99 0 145.22 L18.93 145.22 C18.93 139.99 14.69 135.75 9.46 135.75 Z"
						class="st4"/>
			</g>
			<g id="shape9-15">
				<title>工作表.9</title>
				<path d="M12.51 133.05 A1.01427 1.01427 -180 0 0 12.5 131.02 A1.01427 1.01427 -180 0 0 12.51 133.05 ZM19.94 133.05
							 A1.01427 1.01427 -180 0 0 19.94 131.02 A1.01427 1.01427 -180 0 0 19.94 133.05 ZM6.08 137.11 a0.675954
							 0.675954 -180 0 0 0.675954 0.675954 L25.69 137.78 a0.675954 0.675954 -180 0 0 0.675954 -0.675954 C26.36
							 133.87 24.84 131 22.48 129.14 L24.81 126.81 a0.707723 0.707723 -180 0 0 -0.999735 -0.999735 L21.29 128.33
							 A10.0866 10.0866 -180 0 0 11.15 128.33 L8.63 125.81 a0.707723 0.707723 -180 0 0 -0.999735 0.999735 L9.96
							 129.14 C7.6 131 6.08 133.87 6.08 137.11 ZM16.22 128.32 C20.85 128.32 24.63 131.89 24.98 136.43 L7.47
							 136.43 C7.82 131.89 11.6 128.32 16.22 128.32 ZM33.8 107.36 L32.45 107.36 L32.45 103.31 A1.35191 1.35191
							 -180 0 0 31.09 101.96 L1.35 101.96 A1.35191 1.35191 -180 0 0 0 103.31 L0 143.86 A1.35191 1.35191 -180
							 0 0 1.35 145.22 L31.09 145.22 A1.35191 1.35191 -180 0 0 32.45 143.86 L32.45 119.53 L33.8 119.53 A1.35191
							 1.35191 -180 0 0 35.15 118.18 L35.15 108.72 A1.35191 1.35191 -180 0 0 33.8 107.36 ZM31.09 107.36 L14.87
							 107.36 A1.35191 1.35191 -180 0 0 13.52 108.72 L13.52 118.18 A1.35191 1.35191 -180 0 0 14.87 119.53 L31.09
							 119.53 L31.09 143.86 L1.35 143.86 L1.35 103.31 L31.09 103.31 L31.09 107.36 Z" class="st2"/>
			</g>
			<g id="shape10-17" transform="translate(17.0563,-29.404)">
				<title>工作表.10</title>
				<path d="M4.98 145.22 L4.1 145.22 C4 145.22 3.91 145.19 3.85 145.15 C3.79 145.1 3.74 145.04 3.72 144.97 L3.43 144.11
							 L1.55 144.11 L1.26 144.97 C1.24 145.03 1.2 145.09 1.13 145.14 C1.07 145.19 0.99 145.22 0.89 145.22 L0
							 145.22 L1.91 140.29 L3.07 140.29 L4.98 145.22 ZM1.82 143.33 L3.16 143.33 L2.71 141.99 C2.68 141.9 2.65
							 141.8 2.61 141.68 A7.31787 7.31787 0 0 1 2.49 141.31 C2.45 141.44 2.42 141.57 2.38 141.69 A5.24202 5.24202
							 0 0 1 2.27 141.99 L1.82 143.33 ZM6.52 143.57 L6.52 145.22 L5.38 145.22 L5.38 140.29 L7.12 140.29 C7.46
							 140.29 7.76 140.33 8.01 140.42 C8.26 140.5 8.46 140.61 8.63 140.76 C8.79 140.9 8.91 141.07 8.98 141.27
							 C9.06 141.46 9.1 141.67 9.1 141.9 C9.1 142.15 9.06 142.37 8.98 142.58 A1.36475 1.36475 0 0 1 8.62 143.1
							 C8.46 143.25 8.25 143.37 8 143.45 C7.75 143.53 7.46 143.57 7.12 143.57 L6.52 143.57 L6.52 143.57 ZM6.52
							 142.71 L7.12 142.71 C7.41 142.71 7.63 142.64 7.76 142.5 C7.89 142.35 7.96 142.16 7.96 141.9 C7.96 141.79
							 7.94 141.69 7.9 141.59 a0.627285 0.627285 -180 0 0 -0.154117 -0.238612 a0.696908 0.696908 -180 0 0 -0.260242
							 -0.154117 A1.15858 1.15858 -180 0 0 7.12 141.15 L6.52 141.15 L6.52 142.71 L6.52 142.71 ZM10.83 142.29
							 L11.02 142.29 C11.19 142.29 11.31 142.23 11.38 142.13 L12.49 140.52 C12.55 140.43 12.62 140.37 12.7
							 140.34 C12.78 140.31 12.87 140.29 12.99 140.29 L13.98 140.29 L12.52 142.28 a0.982837 0.982837 0 0 1
							 -0.334597 0.29742 C12.27 142.61 12.35 142.66 12.42 142.71 C12.49 142.77 12.56 142.84 12.61 142.93 L14.1
							 145.22 L13.08 145.22 C13.01 145.22 12.96 145.21 12.91 145.2 C12.87 145.19 12.83 145.18 12.79 145.16
							 C12.76 145.14 12.73 145.12 12.71 145.1 a0.605654 0.605654 0 0 1 -0.0709751 -0.0892259 L11.52 143.29
							 a0.337977 0.337977 -180 0 0 -0.153441 -0.133839 a0.675954 0.675954 -180 0 0 -0.252131 -0.0385294 L10.84
							 143.12 L10.84 145.22 L9.69 145.22 L9.69 140.29 L10.84 140.29 L10.84 142.29 L10.83 142.29 Z"
						class="st4"/>
			</g>
		</g>
		<g id="group11-19" transform="translate(315.501,-51.7759)">
			<title>工作表.11</title>
			<g id="shape12-20">
				<title>工作表.12</title>
				<path d="M48.57 126.83 L38.35 126.82 C37.8 126.97 37.23 126.64 37.08 126.09 L35.54 121.19 L30.71 143.86 C30.71 143.86
							 30.61 145.06 29.96 145.06 C29.32 145.06 28.23 145.07 28.23 145.07 C27.69 145.22 27.14 144.9 27 144.37
							 L21.01 114.79 L16.47 136.16 C16.32 136.69 15.69 137.14 15.15 137 L13.54 137.02 C12.98 137.17 12.4 136.84
							 12.25 136.29 L9.22 126.83 L1.03 126.83 C0.46 126.83 0 126.37 0 125.8 L0 123.73 C0 123.16 0.46 122.7
							 1.03 122.7 L11.21 122.67 C11.82 122.65 12.35 122.72 12.5 123.27 L14.08 128.19 L18.51 104.99 C18.51 104.99
							 18.73 104.29 19.44 104.29 C20.15 104.29 21.65 104.26 21.65 104.26 C22.18 104.12 22.73 104.44 22.87 104.97
							 L28.81 134.31 L33.2 113.24 C33.34 112.7 33.76 112.26 34.3 112.4 L36.06 112.38 C36.61 112.23 37.18 112.56
							 37.33 113.11 L40.34 122.7 L48.57 122.7 C49.14 122.7 49.61 123.16 49.61 123.73 L49.61 125.8 C49.61 126.37
							 49.14 126.83 48.57 126.83 Z" class="st5"/>
			</g>
		</g>
		<g id="shape13-22" transform="translate(59.2488,-79.5531)">
			<title>Dynamic connector.175</title>
			<path d="M0 152.16 L24.14 152.38" class="st6"/>
		</g>
		<g id="shape14-28" transform="translate(276.099,-80.0789)">
			<title>Dynamic connector.176</title>
			<path d="M0 152.2 L24.71 152.36" class="st6"/>
		</g>
		<g id="shape15-33" transform="translate(317.06,-34.3406)">
			<title>工作表.15</title>
			<desc>Traffic</desc>
			<rect x="0" y="131.043" width="46.7717" height="14.1732" class="st8"/>
			<text x="5.75" y="141.13" class="st9">Traffic</text>		</g>
		<g id="shape16-36" transform="translate(407.627,-28.9134)">
			<title>矩形.178</title>
			<rect x="0" y="68.9232" width="70.8661" height="76.2933" rx="8.50394" ry="8.50394" class="st10"/>
		</g>
		<g id="shape17-38" transform="translate(372.194,-79.6217)">
			<title>Dynamic connector.179</title>
			<path d="M0 152.2 L24.71 152.36" class="st6"/>
		</g>
		<g id="shape18-43" transform="translate(418.677,-41.0406)">
			<title>工作表.18</title>
			<desc>Traffic analysis</desc>
			<rect x="0" y="131.043" width="46.7717" height="14.1732" class="st8"/>
			<text x="5.75" y="135.13" class="st9">Traffic <tspan x="3.23" dy="1.2em" class="st11">analysis</tspan></text>		</g>
		<g id="group19-47" transform="translate(520.487,-61.9725)">
			<title>工作表.19</title>
			<g id="shape20-48">
				<title>工作表.20</title>
				<path d="M33.12 131.3 C33.12 131.66 32.99 131.97 32.73 132.23 A1.27346 1.27346 0 0 1 31.8 132.63 L27.16 132.63 C27.16
							 134.99 26.7 136.99 25.77 138.63 L30.08 142.96 C30.34 143.22 30.47 143.53 30.47 143.89 C30.47 144.25
							 30.34 144.56 30.08 144.82 A1.22823 1.22823 0 0 1 29.15 145.22 A1.22823 1.22823 0 0 1 28.22 144.82 L24.12
							 140.74 A4.02032 4.02032 0 0 1 23.81 141.01 C23.67 141.12 23.38 141.32 22.94 141.6 A13.0393 13.0393 0
							 0 1 21.59 142.36 A9.545 9.545 0 0 1 19.89 142.96 A7.81214 7.81214 0 0 1 17.89 143.23 L17.89 124.68 L15.24
							 124.68 L15.24 143.23 C14.53 143.23 13.83 143.13 13.13 142.95 A8.45482 8.45482 0 0 1 11.33 142.26 A17.3405
							 17.3405 0 0 1 9.97 141.46 A7.22183 7.22183 0 0 1 9.07 140.78 L8.76 140.49 L4.97 144.78 A1.32583 1.32583
							 0 0 1 3.98 145.21 A1.34725 1.34725 0 0 1 3.08 144.88 A1.32345 1.32345 0 0 1 2.66 143.96 A1.32583 1.32583
							 0 0 1 2.98 143 L7.16 138.3 C6.36 136.73 5.96 134.83 5.96 132.63 L1.32 132.63 A1.27346 1.27346 0 0 1
							 0.39 132.23 A1.27346 1.27346 0 0 1 0 131.3 C0 130.94 0.13 130.63 0.39 130.37 C0.65 130.11 0.96 129.98
							 1.32 129.98 L5.96 129.98 L5.96 123.89 L2.38 120.31 A1.27346 1.27346 0 0 1 1.99 119.38 C1.99 119.02 2.12
							 118.71 2.38 118.45 C2.64 118.18 2.95 118.05 3.31 118.05 C3.67 118.05 3.98 118.18 4.24 118.45 L7.82 122.03
							 L25.3 122.03 L28.88 118.45 C29.14 118.18 29.45 118.05 29.81 118.05 C30.17 118.05 30.48 118.18 30.74
							 118.45 C31.01 118.71 31.14 119.02 31.14 119.38 C31.14 119.73 31.01 120.04 30.74 120.31 L27.16 123.89
							 L27.16 129.98 L31.8 129.98 C32.16 129.98 32.47 130.11 32.73 130.37 C32.99 130.63 33.12 130.94 33.12
							 131.3 L33.12 131.31 L33.12 131.3 ZM23.19 119.38 L9.94 119.38 C9.94 117.54 10.58 115.98 11.87 114.69
							 A6.38634 6.38634 0 0 1 16.56 112.75 C18.4 112.75 19.96 113.4 21.25 114.69 C22.54 115.98 23.19 117.54
							 23.19 119.38 L23.19 119.38 Z" class="st5"/>
			</g>
		</g>
		<g id="shape21-50" transform="translate(513.926,-36)">
			<title>工作表.21</title>
			<desc>Software defect</desc>
			<rect x="0" y="131.043" width="46.7717" height="14.1732" class="st8"/>
			<text x="3.23" y="135.13" class="st9">Software <tspan x="8.27" dy="1.2em" class="st11">defect</tspan></text>		</g>
		<g id="shape22-54" transform="translate(483.879,-77.8935)">
			<title>Dynamic connector.185</title>
			<path d="M0 152.2 L24.71 152.36" class="st6"/>
		</g>
		<g id="group23-59" transform="translate(198.992,-59.8223)">
			<title>工作表.23</title>
			<g id="shape24-60" transform="translate(3.54331,-10.8852)">
				<title>工作表.24</title>
				<rect x="0" y="134.356" width="31.8898" height="10.8608" class="st4"/>
			</g>
			<g id="shape25-62" transform="translate(0,-8.17003)">
				<title>工作表.25</title>
				<path d="M35.43 145.22 L0 145.22 L0 128.93 L35.43 128.93 L35.43 131.64 L3.54 131.64 L3.54 142.5 L35.43 142.5 L35.43
							 145.22 Z" class="st2"/>
			</g>
			<g id="shape26-64" transform="translate(7.08661,-13.6004)">
				<title>工作表.26</title>
				<rect x="0" y="139.786" width="21.2598" height="5.4304" class="st2"/>
			</g>
			<g id="shape27-66" transform="translate(31.8898,0)">
				<title>工作表.27</title>
				<path d="M10.63 140.42 C12.68 141.78 15.09 142.46 17.74 142.46 L17.77 142.46 L17.77 145.21 L17.74 145.21 A14.0032
							 10.7305 0 0 1 8.94 142.88 A14.4257 11.0543 0 0 1 0.03 145.22 L0 145.22 L0 142.46 L0.03 142.46 A10.5945
							 8.11844 -180 0 0 7.09 140.48 L7.09 117.23 A10.1728 7.79534 -180 0 0 3.86 115.82 C2.67 115.5 1.39 115.35
							 0.03 115.35 L0 115.35 L0 112.59 L0.03 112.59 C1.71 112.59 3.3 112.78 4.8 113.16 A14.1847 10.8696 0 0
							 1 8.94 114.84 C11.49 113.34 14.42 112.59 17.74 112.59 L17.77 112.59 L17.77 115.35 L17.74 115.35 C15.01
							 115.35 12.6 116 10.63 117.3 L10.63 140.42 Z" class="st2"/>
			</g>
			<g id="shape28-68" transform="translate(46.063,-8.17003)">
				<title>工作表.28</title>
				<path d="M10.63 128.93 L10.63 145.22 L0 145.22 L0 142.5 L7.09 142.5 L7.09 131.64 L0 131.64 L0 128.93 L10.63 128.93
							 Z" class="st12"/>
			</g>
			<g id="shape29-70" transform="translate(46.063,-10.8852)">
				<title>工作表.29</title>
				<rect x="0" y="134.356" width="7.08661" height="10.8608" class="st4"/>
			</g>
		</g>
		<g id="shape30-72" transform="translate(175.465,-32.9233)">
			<title>工作表.30</title>
			<desc>Input Generator</desc>
			<rect x="0" y="131.043" width="80.2205" height="14.1732" class="st8"/>
			<text x="3.17" y="141.38" class="st9">Input Generato<tspan class="st13">r</tspan></text>		</g>
		<g id="group31-76" transform="translate(114.524,-54.1191)">
			<title>工作表.31</title>
			<g id="shape32-77">
				<title>工作表.32</title>
				<path d="M21.62 92.71 L6.73 92.71 C3.12 92.71 0 94.37 0 98.22 L0 138.82 C0 142.42 2.89 145.22 6.73 145.22 L21.63
							 145.22 C25.47 145.22 28.35 142.09 28.35 138.25 L28.35 97.89 C28.35 94.29 25.47 92.71 21.62 92.71 ZM14.63
							 93.57 a0.459252 0.459252 0 0 1 0.455719 0.455719 a0.459252 0.459252 0 0 1 -0.455719 0.453953 a0.455719
							 0.455719 0 0 1 -1.77636E-15 -0.909673 ZM12.32 96.01 C12.32 95.74 12.53 95.53 12.8 95.53 L16.71 95.53
							 C16.98 95.53 17.2 95.74 17.2 96.01 L17.2 96.04 C17.2 96.31 16.98 96.53 16.71 96.53 L12.8 96.53 a0.483981
							 0.483981 0 0 1 -0.482215 -0.482215 L12.32 96.01 ZM10.83 95.59 a0.455719 0.455719 0 0 1 0 0.911439 a0.456603
							 0.456603 0 1 1 -5.32907E-15 -0.913205 L10.83 95.59 ZM14.18 143.51 A2.2574 2.2574 0 0 1 14.18 138.99
							 A2.2574 2.2574 0 0 1 14.18 143.51 ZM26.03 136.83 C26.03 137.19 25.73 137.49 25.36 137.49 L3 137.49 a0.669448
							 0.669448 0 0 1 -0.667682 -0.667682 L2.33 98.84 C2.33 98.48 2.63 98.18 3 98.18 L25.36 98.18 C25.73 98.18
							 26.03 98.48 26.03 98.84 L26.03 136.83 L26.03 136.83 Z" class="st2"/>
			</g>
		</g>
		<g id="shape33-79" transform="translate(104.032,-28.9134)">
			<title>工作表.33</title>
			<desc>Driver</desc>
			<rect x="0" y="123.957" width="49.6063" height="21.2598" class="st8"/>
			<text x="9.69" y="137.59" class="st9">Driver</text>		</g>
		<g id="shape34-82" transform="translate(156.472,-87.6892)">
			<title>Dynamic connector.226</title>
			<path d="M0 152.16 L24.14 152.38" class="st6"/>
		</g>
		<g id="shape35-87" transform="translate(156.472,-77.002)">
			<title>Dynamic connector.227</title>
			<path d="M6.68 152.22 L7.04 152.23 L31.18 152.44" class="st14"/>
		</g>
	</g>
</svg>
